<svg xmlns="http://www.w3.org/2000/svg" viewBox="0 0 512 512"><path d="M200,0 C89.5427419,0 0,89.5427419 0,200 C0,310.457258 89.5427419,400 200,400 C310.457258,400 400,310.457258 400,200 C400,89.5427419 310.457258,0 200,0 Z M200,38.7096774 C289.13871,38.7096774 361.290323,110.847581 361.290323,200 C361.290323,289.13871 289.152419,361.290323 200,361.290323 C110.86129,361.290323 38.7096774,289.152419 38.7096774,200 C38.7096774,110.86129 110.847581,38.7096774 200,38.7096774 M313.067742,143.76371 L294.893548,125.442742 C291.129839,121.648387 285.002419,121.623387 281.208065,125.387903 L167.214516,238.465323 L118.995161,189.854839 C115.231452,186.060484 109.104032,186.035484 105.309677,189.799194 L86.9879032,207.973387 C83.1935484,211.737097 83.1685484,217.864516 86.9330645,221.659677 L160.143548,295.462903 C163.907258,299.257258 170.034677,299.282258 173.829032,295.517742 L313.01371,157.45 C316.807258,153.685484 316.831452,147.558065 313.067742,143.76371 L313.067742,143.76371 Z" transform="translate(56 56)"/></svg>
