<svg xmlns="http://www.w3.org/2000/svg" viewBox="0 0 512 512"><path d="M177.525893,217.424107 L182.575893,222.474107 C186.759821,226.658036 186.759821,233.441964 182.575893,237.626786 L48.7741071,371.428571 L103.571429,371.428571 C109.488393,371.428571 114.285714,376.225893 114.285714,382.142857 L114.285714,389.285714 C114.285714,395.202679 109.488393,400 103.571429,400 L10.7142857,400 C4.79732143,400 -8.66418048e-13,395.202679 -8.66418048e-13,389.285714 L-8.66418048e-13,296.428571 C-8.66418048e-13,290.511607 4.79732143,285.714286 10.7142857,285.714286 L17.8571429,285.714286 C23.7741071,285.714286 28.5714286,290.511607 28.5714286,296.428571 L28.5714286,351.225893 L162.373214,217.424107 C166.558036,213.239286 173.341964,213.239286 177.525893,217.424107 Z M222.187946,217.138616 L217.137946,222.188616 C212.954018,226.372545 212.954018,233.156473 217.137946,237.341295 L350.939732,371.14308 L296.142411,371.14308 C290.225446,371.14308 285.428125,375.940402 285.428125,381.857366 L285.428125,389.000223 C285.428125,394.917187 290.225446,399.714509 296.142411,399.714509 L388.999554,399.714509 C394.916518,399.714509 399.713839,394.917187 399.713839,389.000223 L399.713839,296.14308 C399.713839,290.226116 394.916518,285.428795 388.999554,285.428795 L381.856696,285.428795 C375.939732,285.428795 371.142411,290.226116 371.142411,296.14308 L371.142411,350.940402 L237.340625,217.138616 C233.155804,212.953795 226.371875,212.953795 222.187946,217.138616 Z M389.285714,-3.07665005e-12 L296.428571,-3.07665005e-12 C290.511607,-3.07665005e-12 285.714286,4.79732143 285.714286,10.7142857 L285.714286,17.8571429 C285.714286,23.7741071 290.511607,28.5714286 296.428571,28.5714286 L351.225893,28.5714286 L217.424107,162.373214 C213.240179,166.557143 213.240179,173.341071 217.424107,177.525893 L222.474107,182.575893 C226.658036,186.759821 233.441964,186.759821 237.626786,182.575893 L371.428571,48.7741071 L371.428571,103.571429 C371.428571,109.488393 376.225893,114.285714 382.142857,114.285714 L389.285714,114.285714 C395.202679,114.285714 400,109.488393 400,103.571429 L400,10.7142857 C400,4.79732143 395.202679,-3.07665005e-12 389.285714,-3.07665005e-12 Z M10.7142857,-2.86348723e-12 L103.571429,-2.86348723e-12 C109.488393,-2.86348723e-12 114.285714,4.79732143 114.285714,10.7142857 L114.285714,17.8571429 C114.285714,23.7741071 109.488393,28.5714286 103.571429,28.5714286 L48.7741071,28.5714286 L182.575893,162.373214 C186.759821,166.557143 186.759821,173.341071 182.575893,177.525893 L177.525893,182.575893 C173.341964,186.759821 166.558036,186.759821 162.373214,182.575893 L28.5714286,48.7741071 L28.5714286,103.571429 C28.5714286,109.488393 23.7741071,114.285714 17.8571429,114.285714 L10.7142857,114.285714 C4.79732143,114.285714 -8.66418048e-13,109.488393 -8.66418048e-13,103.571429 L-8.66418048e-13,10.7142857 C-8.66418048e-13,4.79732143 4.79732143,-2.86348723e-12 10.7142857,-2.86348723e-12 Z" transform="translate(56 56)"/></svg>
