<svg xmlns="http://www.w3.org/2000/svg" viewBox="0 0 512 512"><path d="M226.20155,213.178295 L43.5658915,393.023256 C36.2790698,400.310078 24.496124,400.310078 17.2093023,393.023256 L6.20155039,382.015504 C-1.08527132,374.728682 -1.08527132,362.945736 6.20155039,355.658915 L164.806202,200 L6.35658915,44.3410853 C-0.930232558,37.0542636 -0.930232558,25.2713178 6.35658915,17.9844961 L17.3643411,6.97674419 C24.6511628,-0.310077519 36.4341085,-0.310077519 43.7209302,6.97674419 L226.356589,186.821705 C233.488372,194.108527 233.488372,205.891473 226.20155,213.178295 Z M424.651163,186.821705 L242.015504,6.97674419 C234.728682,-0.310077519 222.945736,-0.310077519 215.658915,6.97674419 L204.651163,17.9844961 C197.364341,25.2713178 197.364341,37.0542636 204.651163,44.3410853 L363.255814,200 L204.806202,355.658915 C197.51938,362.945736 197.51938,374.728682 204.806202,382.015504 L215.813953,393.023256 C223.100775,400.310078 234.883721,400.310078 242.170543,393.023256 L424.806202,213.178295 C431.937984,205.891473 431.937984,194.108527 424.651163,186.821705 Z" transform="translate(40 56)"/></svg>
