<svg xmlns="http://www.w3.org/2000/svg" viewBox="0 0 512 512"><path d="M242.857143,357.1 L242.857143,291.208929 L357.142857,291.208929 C380.8125,291.208929 400,272.021429 400,248.351786 L400,151.648214 C400,127.978571 380.8125,108.791071 357.142857,108.791071 L242.857143,108.791071 L242.857143,42.9080357 C242.857143,4.83839286 196.66875,-14.36875 169.695536,12.6035714 L12.5526786,169.695536 C-4.18392857,186.432143 -4.18482143,213.567857 12.5526786,230.304464 L169.695536,387.404464 C196.614286,414.323214 242.857143,395.245536 242.857143,357.1 Z M42.8571429,200 L200,42.8571429 L200,151.648214 L357.142857,151.648214 L357.142857,248.351786 L200,248.351786 L200,357.142857 L42.8571429,200 Z" transform="translate(56 56)"/></svg>
