<svg xmlns="http://www.w3.org/2000/svg" viewBox="0 0 512 512"><path d="M157.142857,42.9 L157.142857,108.791071 L42.8571429,108.791071 C19.1875,108.791071 0,127.978571 0,151.648214 L0,248.351786 C0,272.021429 19.1875,291.208929 42.8571429,291.208929 L157.142857,291.208929 L157.142857,357.091964 C157.142857,395.161607 203.33125,414.369643 230.304464,387.396429 L387.447321,230.304464 C404.183929,213.567857 404.184821,186.432143 387.447321,169.695536 L230.304464,12.5955357 C203.385714,-14.3232143 157.142857,4.75446429 157.142857,42.9 Z M357.142857,200 L200,357.142857 L200,248.351786 L42.8571429,248.351786 L42.8571429,151.648214 L200,151.648214 L200,42.8571429 L357.142857,200 Z" transform="translate(56 56)"/></svg>
