<svg xmlns="http://www.w3.org/2000/svg" viewBox="0 0 512 512"><path d="M0,132.142857 L0,21.4285714 C0,9.55357143 9.55357143,0 21.4285714,0 L132.142857,0 C138.035714,0 142.857143,4.82142857 142.857143,10.7142857 L142.857143,17.8571429 C142.857143,23.75 138.035714,28.5714286 132.142857,28.5714286 L28.5714286,28.5714286 L28.5714286,132.142857 C28.5714286,138.035714 23.75,142.857143 17.8571429,142.857143 L10.7142857,142.857143 C4.82142857,142.857143 0,138.035714 0,132.142857 Z M267.857143,0 L378.571429,0 C390.446429,0 400,9.55357143 400,21.4285714 L400,132.142857 C400,138.035714 395.178571,142.857143 389.285714,142.857143 L382.142857,142.857143 C376.25,142.857143 371.428571,138.035714 371.428571,132.142857 L371.428571,28.5714286 L267.857143,28.5714286 C261.964286,28.5714286 257.142857,23.75 257.142857,17.8571429 L257.142857,10.7142857 C257.142857,4.82142857 261.964286,0 267.857143,0 Z M400,267.857143 L400,378.571429 C400,390.446429 390.446429,400 378.571429,400 L267.857143,400 C261.964286,400 257.142857,395.178571 257.142857,389.285714 L257.142857,382.142857 C257.142857,376.25 261.964286,371.428571 267.857143,371.428571 L371.428571,371.428571 L371.428571,267.857143 C371.428571,261.964286 376.25,257.142857 382.142857,257.142857 L389.285714,257.142857 C395.178571,257.142857 400,261.964286 400,267.857143 Z M132.142857,400 L21.4285714,400 C9.55357143,400 0,390.446429 0,378.571429 L0,267.857143 C0,261.964286 4.82142857,257.142857 10.7142857,257.142857 L17.8571429,257.142857 C23.75,257.142857 28.5714286,261.964286 28.5714286,267.857143 L28.5714286,371.428571 L132.142857,371.428571 C138.035714,371.428571 142.857143,376.25 142.857143,382.142857 L142.857143,389.285714 C142.857143,395.178571 138.035714,400 132.142857,400 Z" transform="translate(56 56)"/></svg>
