<svg xmlns="http://www.w3.org/2000/svg" viewBox="0 0 512 512"><path d="M250.136452,159.844055 L250.136452,166.081871 C250.136452,171.22807 245.925926,175.438596 240.779727,175.438596 L175.282651,175.438596 L175.282651,240.935673 C175.282651,246.081871 171.072125,250.292398 165.925926,250.292398 L159.688109,250.292398 C154.54191,250.292398 150.331384,246.081871 150.331384,240.935673 L150.331384,175.438596 L84.834308,175.438596 C79.6881092,175.438596 75.4775828,171.22807 75.4775828,166.081871 L75.4775828,159.844055 C75.4775828,154.697856 79.6881092,150.487329 84.834308,150.487329 L150.331384,150.487329 L150.331384,84.9902534 C150.331384,79.8440546 154.54191,75.6335283 159.688109,75.6335283 L165.925926,75.6335283 C171.072125,75.6335283 175.282651,79.8440546 175.282651,84.9902534 L175.282651,150.487329 L240.779727,150.487329 C245.925926,150.487329 250.136452,154.697856 250.136452,159.844055 Z M397.11501,388.304094 L388.304094,397.11501 C384.639376,400.779727 378.71345,400.779727 375.048733,397.11501 L274.463938,296.530214 C272.670565,294.736842 271.734893,292.397661 271.734893,289.902534 L271.734893,283.274854 C242.962963,309.317739 204.834308,325.146199 162.962963,325.146199 C73.9181287,325.146199 1.94931774,254.11306 0.779727096,165.068226 C-0.389863548,73.8401559 73.8401559,-0.389863548 165.068226,0.779727096 C254.11306,1.94931774 325.146199,73.9181287 325.146199,162.962963 C325.146199,204.834308 309.317739,242.962963 283.274854,271.734893 L289.902534,271.734893 C292.397661,271.734893 294.736842,272.748538 296.530214,274.463938 L397.11501,375.048733 C400.779727,378.71345 400.779727,384.639376 397.11501,388.304094 Z M300.194932,162.962963 C300.194932,87.0955166 238.830409,25.7309942 162.962963,25.7309942 C87.0955166,25.7309942 25.7309942,87.0955166 25.7309942,162.962963 C25.7309942,238.830409 87.0955166,300.194932 162.962963,300.194932 C238.830409,300.194932 300.194932,238.830409 300.194932,162.962963 Z" transform="translate(56 56)"/></svg>
