<svg xmlns="http://www.w3.org/2000/svg" viewBox="0 0 512 512"><path d="M9.52380952,-0.00019195871 L31.5166667,-0.00019195871 C36.8650794,-0.00019195871 41.1650794,4.4031746 41.0380952,9.75079365 L39.1753968,87.9793651 C74.5436508,34.7888889 135.088889,-0.214285714 203.803968,-0.00019195871 C312.047619,0.33968254 400.169048,88.8960317 400.000243,197.139683 C399.830159,305.699206 311.77381,393.650794 203.174603,393.650794 C152.439683,393.650794 106.188889,374.454762 71.2873016,342.930159 C67.2293651,339.265079 67.0380952,332.961111 70.9047619,329.094444 L86.5698413,313.429365 C90.1396825,309.859524 95.897619,309.631746 99.665873,312.99127 C127.153175,337.496825 163.40873,352.380952 203.174603,352.380952 C289.144444,352.380952 358.730159,282.807937 358.730159,196.825397 C358.730159,110.855556 289.157143,41.2698413 203.174603,41.2698413 C140.043651,41.2698413 85.7611111,78.7952381 61.3690476,132.779365 L161.677778,130.39127 C167.024603,130.264286 171.428571,134.563492 171.428571,139.912698 L171.428571,161.904762 C171.428571,167.164286 167.164286,171.428571 161.904762,171.428571 L9.52380952,171.428571 C4.26428571,171.428571 0,167.164286 0,161.904762 L0,9.52380952 C0,4.26428571 4.26428571,-0.00019195871 9.52380952,-0.00019195871 Z" transform="translate(56 59)"/></svg>
